<?xml version="1.0" encoding="utf-8"?>
<!-- Uploaded to: SVG Repo, www.svgrepo.com, Generator: SVG Repo Mixer Tools -->
<svg width="800px" height="800px" viewBox="0 0 1024 1024" class="icon"  version="1.1" xmlns="http://www.w3.org/2000/svg"><path d="M362.666667 298.666667v234.666666h298.666666V298.666667H362.666667z m85.333333 170.666666h-42.666667v-106.666666c0-12.8 8.533333-21.333333 21.333334-21.333334s21.333333 8.533333 21.333333 21.333334v106.666666z m85.333333 0h-42.666666v-106.666666c0-12.8 8.533333-21.333333 21.333333-21.333334s21.333333 8.533333 21.333333 21.333334v106.666666z m85.333334 0h-42.666667v-106.666666c0-12.8 8.533333-21.333333 21.333333-21.333334s21.333333 8.533333 21.333334 21.333334v106.666666z" fill="#E89419" /><path d="M512 426.666667L128 597.333333v298.666667h768V597.333333l-384-170.666666z" fill="#E89419" /><path d="M725.333333 896H298.666667V533.333333l213.333333-85.333333 213.333333 85.333333z" fill="#FFB74D" /><path d="M832 746.666667h-42.666667v-64c0-12.8 8.533333-21.333333 21.333334-21.333334s21.333333 8.533333 21.333333 21.333334v64zM234.666667 746.666667H192v-64c0-12.8 8.533333-21.333333 21.333333-21.333334s21.333333 8.533333 21.333334 21.333334v64zM618.666667 896H405.333333v-149.333333c0-59.733333 46.933333-106.666667 106.666667-106.666667s106.666667 46.933333 106.666667 106.666667v149.333333z" fill="#805A26" /><path d="M661.333333 298.666667c0-123.733333-149.333333-170.666667-149.333333-170.666667s-149.333333 42.666667-149.333333 170.666667h298.666666zM512 405.333333L128 576v42.666667l384-170.666667 384 170.666667v-42.666667z" fill="#D84315" /></svg>