<svg xmlns="http://www.w3.org/2000/svg" xmlns:xlink="http://www.w3.org/1999/xlink" width="550" height="550" viewBox="0 0 550 550">
  <defs>
    <path id="mss@1x-a" d="M0.0715172182,38.2511799 C-0.743257172,28.3321372 5.40385258,18.2563628 18.511694,10.6882957 C43.1957855,-3.56276524 83.2753099,-3.56276524 107.959401,10.6882957 C119.634761,17.4289116 125.787633,26.1586372 126.418017,34.9966921 L126.451438,34.9966921 L126.451438,35.5890457 C126.477944,36.2021433 126.477944,36.8163933 126.451438,37.4294909 L126.451438,71.8113567 C126.477944,72.4244543 126.477944,73.0380128 126.451438,73.6512256 L126.451438,74.0419024 L126.431846,74.0419024 C125.880981,82.9480665 119.724651,91.759961 107.959401,98.5524366 C83.2753099,112.803498 43.1957855,112.803498 18.511694,98.5524366 C5.40385258,90.984139 -0.743257172,80.9087104 0.0715172182,70.9892067 L0.0715172182,38.2511799 Z"/>
    <linearGradient id="mss@1x-b" x1="21.853%" x2="44.151%" y1="78.211%" y2="77.041%">
      <stop offset="0%" stop-color="#FFF"/>
      <stop offset="100%" stop-color="#EFF4F6"/>
    </linearGradient>
    <path id="mss@1x-d" d="M73.4011463,1.11440854 C75.9249878,1.11440854 77.9740244,3.16344512 77.9740244,5.68728659 C77.9740244,7.0137439 77.4081768,8.20882317 76.5046646,9.0454939 L76.5242561,9.06854268 L76.4971587,9.10005041 C75.8612341,9.8394766 64.2241797,23.3705478 61.9297683,26.0382073 C61.6704695,26.3389939 61.3696829,26.60175 61.0354756,26.8172561 C58.92075,28.1817439 50.6738963,33.5025549 46.4156341,36.251122 C44.7953049,37.2963841 43.771939,39.0515488 43.6601524,40.976122 C43.1565366,49.6482256 41.7551707,73.7457256 41.7551707,73.7457256 L44.8794329,108.248598 L46.116,141.543713 C46.1194573,141.615165 46.1229146,141.685463 46.1240671,141.756915 C46.1252195,141.80647 46.1252195,141.85372 46.1252195,141.90097 C46.1252195,145.574945 43.1427073,148.557457 39.4698841,148.557457 C35.7959085,148.557457 32.8133963,145.574945 32.8133963,141.90097 C32.8133963,141.822604 32.8145488,141.744238 32.8180061,141.665872 L32.8133963,141.665872 L31.3428841,110.052165 L28.2197744,90.2140793 L26.1373171,140.446591 L26.1373171,140.475402 C26.1373171,144.148226 23.1548049,147.130738 19.4808293,147.130738 C15.8080061,147.130738 12.8254939,144.148226 12.8254939,140.475402 L12.8254939,140.387817 L12.8254939,140.387817 L12.8208841,140.387817 L12.8301037,140.238 C12.833561,140.119299 12.8404756,140.00175 12.8508476,139.885354 L14.6832256,110.052165 L13.2864695,71.337128 L11.76525,56.4314817 L10.0700122,64.5458049 L10.358122,82.999811 L10.3489024,82.999811 C10.366189,83.1657622 10.3754085,83.3328659 10.3754085,83.5022744 C10.3754085,86.0261159 8.32637195,88.0763049 5.80253049,88.0763049 C3.27868902,88.0763049 1.22965244,86.0261159 1.22965244,83.5022744 C1.22965244,83.3328659 1.23887195,83.1657622 1.25615854,82.999811 L1.21121341,82.999811 C1.21121341,82.999811 0.891987805,66.7803841 0.842432927,64.2680671 C0.837823171,64.052561 0.8505,63.8359024 0.879310976,63.6215488 C1.14091463,61.6866037 2.5249939,51.4275915 3.6324878,43.2164634 C4.49796951,36.8065976 9.29211585,31.6309939 15.6167012,30.2780305 C26.4542378,27.9604756 41.7551707,24.6887012 41.7551707,24.6887012 C41.7551707,24.6887012 53.4754756,17.9215793 55.8979024,16.5236707 C56.1860122,16.3565671 56.4522256,16.1537378 56.6884756,15.9174878 L69.8620061,2.79120732 C70.0579207,2.55265244 70.2780366,2.33368902 70.5165915,2.13892683 L70.6779329,1.9787378 L70.6952195,2.00063415 C71.4535244,1.44285366 72.3893049,1.11440854 73.4011463,1.11440854 Z"/>
    <path id="mss@1x-f" d="M13.9537317,0.949609756 C21.1265122,0.949609756 26.9497866,6.77288415 26.9497866,13.9456646 C26.9497866,21.1184451 21.1265122,26.9417195 13.9537317,26.9417195 C6.78210366,26.9417195 0.958829268,21.1184451 0.958829268,13.9456646 C0.958829268,6.77288415 6.78210366,0.949609756 13.9537317,0.949609756 Z"/>
  </defs>
  <g fill="none" fill-rule="evenodd" transform="translate(57 86)">
    <path fill="#3F6C9F" fill-opacity=".1" d="M137.577018,258.417165 C184.703707,231.208079 261.225659,231.208079 308.352348,258.417165 C355.479037,285.625098 355.479037,329.805115 308.352348,357.013624 C261.225659,384.222134 184.703707,384.222134 137.577018,357.013624 C90.451136,329.805115 90.451136,285.625098 137.577018,258.417165 Z"/>
    <path fill="#5A6D83" fill-opacity=".2" d="M187.774957,273.415006 C212.459049,259.163945 252.538573,259.163945 277.222665,273.415006 C301.905604,287.666067 301.905604,310.806121 277.222665,325.057182 C252.538573,339.308243 212.459049,339.308243 187.774957,325.057182 C163.092018,310.806121 163.092018,287.666067 187.774957,273.415006 Z"/>
    <g transform="translate(159.73 224.798)">
      <mask id="mss@1x-c" fill="#fff">
        <use xlink:href="#mss@1x-a"/>
      </mask>
      <use fill="#FFF" xlink:href="#mss@1x-a"/>
      <polygon fill="url(#mss@1x-b)" points="56.929 125.12 135.295 125.12 135.295 20.672 56.929 20.672" mask="url(#mss@1x-c)"/>
    </g>
    <path stroke="#01050C" stroke-linecap="round" stroke-linejoin="round" d="M159.800652,263.048817 C158.985878,253.129774 165.132988,243.054 178.240829,235.485933 C202.924921,221.234872 243.004445,221.234872 267.688537,235.485933 C279.363896,242.226549 285.516768,250.956274 286.147152,259.794329 L286.180573,259.794329 L286.180573,260.386683 C286.207079,260.99978 286.207079,261.61403 286.180573,262.227128 L286.180573,296.608994 C286.207079,297.222091 286.207079,297.83565 286.180573,298.448863 L286.180573,298.83954 L286.160982,298.83954 C285.610116,307.745704 279.453787,316.557598 267.688537,323.350074 C243.004445,337.601135 202.924921,337.601135 178.240829,323.350074 C165.132988,315.781776 158.985878,305.706348 159.800652,295.786844 L159.800652,263.048817 Z"/>
    <path fill="#FFF" d="M178.240829,234.861311 C202.924921,220.61025 243.004445,220.61025 267.688537,234.861311 C292.371476,249.112372 292.371476,272.253348 267.688537,286.504409 C243.004445,300.755009 202.924921,300.755009 178.240829,286.504409 C153.55789,272.253348 153.55789,249.112372 178.240829,234.861311 Z"/>
    <path stroke="#01050C" stroke-linecap="round" stroke-linejoin="round" d="M178.240829,234.861311 C202.924921,220.61025 243.004445,220.61025 267.688537,234.861311 C292.371476,249.112372 292.371476,272.253348 267.688537,286.504409 C243.004445,300.755009 202.924921,300.755009 178.240829,286.504409 C153.55789,272.253348 153.55789,249.112372 178.240829,234.861311 Z"/>
    <path fill="#3F6C9F" fill-opacity=".12" d="M222.964683,255.25372 C238.240262,258.086415 250.026256,264.052591 249.269104,268.570152 C248.510799,273.086561 235.495152,274.454506 220.219573,271.621811 C204.945146,268.789116 193.158,262.822939 193.916305,258.30653 C194.673457,253.78897 207.689104,252.421024 222.964683,255.25372 Z"/>
    <path fill="#FFF" d="M435.604665,78.9190244 C435.604665,76.413622 434.267835,74.098372 432.098945,72.8456707 C413.77286,62.265128 329.000598,13.3221951 306.779268,0.492091463 C305.676384,-0.144054878 304.318811,-0.144054878 303.215927,0.492091463 C302.113043,1.12939024 301.434256,2.30603049 301.434256,3.57832317 C301.434256,27.4142195 301.434256,113.11189 301.434256,132.792091 C301.434256,135.297494 302.771085,137.612744 304.939976,138.865445 C323.266061,149.444835 408.038323,198.388921 430.259652,211.217872 C431.362537,211.855171 432.72011,211.855171 433.822994,211.217872 C434.925878,210.581726 435.604665,209.405085 435.604665,208.132793 C435.604665,184.296896 435.604665,98.5992256 435.604665,78.9190244 Z"/>
    <path stroke="#01050C" stroke-linecap="round" stroke-linejoin="round" d="M435.604665,78.9190244 C435.604665,76.413622 434.267835,74.098372 432.098945,72.8456707 C413.77286,62.265128 329.000598,13.3221951 306.779268,0.492091463 C305.676384,-0.144054878 304.318811,-0.144054878 303.215927,0.492091463 C302.113043,1.12939024 301.434256,2.30603049 301.434256,3.57832317 C301.434256,27.4142195 301.434256,113.11189 301.434256,132.792091 C301.434256,135.297494 302.771085,137.612744 304.939976,138.865445 C323.266061,149.444835 408.038323,198.388921 430.259652,211.217872 C431.362537,211.855171 432.72011,211.855171 433.822994,211.217872 C434.925878,210.581726 435.604665,209.405085 435.604665,208.132793 C435.604665,184.296896 435.604665,98.5992256 435.604665,78.9190244 Z"/>
    <path fill="#EFF4F7" d="M374.185427,63.3541829 L410.945927,84.5775 C411.809104,96.8279268 415.901415,100.860311 422.484146,105.729366 C423.44989,129.596378 411.162585,148.307378 392.565677,145.981756 L392.457348,145.86997 C373.921518,126.704909 361.683768,93.8903598 362.647207,71.1815488 C369.231091,73.9151341 373.32225,74.60775 374.185427,63.3541829 Z"/>
    <path stroke="#B1BBC9" stroke-linecap="round" stroke-linejoin="round" d="M374.185427,63.3541829 L410.945927,84.5775 C411.809104,96.8279268 415.901415,100.860311 422.484146,105.729366 C423.44989,129.596378 411.162585,148.307378 392.565677,145.981756 L392.457348,145.86997 C373.921518,126.704909 361.683768,93.8903598 362.647207,71.1815488 C369.231091,73.9151341 373.32225,74.60775 374.185427,63.3541829 Z"/>
    <path fill="#FFF" d="M329.307146,21.7868598 C328.01411,21.0400793 326.964238,21.6462622 326.964238,23.1398232 C326.964238,24.6333841 328.01411,26.4519329 329.307146,27.1987134 C330.601335,27.9454939 331.651207,27.339311 331.651207,25.84575 C331.651207,24.352189 330.601335,22.5336402 329.307146,21.7868598 Z"/>
    <path stroke="#01050C" stroke-linecap="round" stroke-linejoin="round" d="M329.307146,21.7868598 C328.01411,21.0400793 326.964238,21.6462622 326.964238,23.1398232 C326.964238,24.6333841 328.01411,26.4519329 329.307146,27.1987134 C330.601335,27.9454939 331.651207,27.339311 331.651207,25.84575 C331.651207,24.352189 330.601335,22.5336402 329.307146,21.7868598 Z"/>
    <path fill="#FFF" d="M320.199421,16.5282805 C318.905232,15.7815 317.85536,16.3876829 317.85536,17.8812439 C317.85536,19.3748049 318.905232,21.1933537 320.199421,21.9401341 C321.492457,22.6869146 322.542329,22.0807317 322.542329,20.5871707 C322.542329,19.0936098 321.492457,17.2739085 320.199421,16.5282805 Z"/>
    <path stroke="#01050C" stroke-linecap="round" stroke-linejoin="round" d="M320.199421,16.5282805 C318.905232,15.7815 317.85536,16.3876829 317.85536,17.8812439 C317.85536,19.3748049 318.905232,21.1933537 320.199421,21.9401341 C321.492457,22.6869146 322.542329,22.0807317 322.542329,20.5871707 C322.542329,19.0936098 321.492457,17.2739085 320.199421,16.5282805 Z"/>
    <path fill="#FFF" d="M311.090543,11.2685488 C309.797506,10.5217683 308.746482,11.1279512 308.746482,12.6215122 C308.746482,14.1150732 309.797506,15.9347744 311.090543,16.6815549 C312.383579,17.4283354 313.433451,16.8221524 313.433451,15.3285915 C313.433451,13.8350305 312.383579,12.0153293 311.090543,11.2685488 Z"/>
    <path stroke="#01050C" stroke-linecap="round" stroke-linejoin="round" d="M311.090543,11.2685488 C309.797506,10.5217683 308.746482,11.1279512 308.746482,12.6215122 C308.746482,14.1150732 309.797506,15.9347744 311.090543,16.6815549 C312.383579,17.4283354 313.433451,16.8221524 313.433451,15.3285915 C313.433451,13.8350305 312.383579,12.0153293 311.090543,11.2685488 Z"/>
    <line x1="359.575" x2="408.77" y1="144.587" y2="172.99" stroke="#D1D9E0" stroke-linecap="round" stroke-linejoin="round" stroke-width="2"/>
    <line x1="359.575" x2="382.955" y1="152.647" y2="166.146" stroke="#D1D9E0" stroke-linecap="round" stroke-linejoin="round" stroke-width="2"/>
    <path fill="#EFF4F7" d="M370.72811,65.0828415 L407.48861,86.3061585 C408.351787,98.5565854 412.444098,102.58897 419.026829,107.458024 C419.992573,131.325037 407.705268,150.036037 389.10836,147.710415 L389.00003,147.598628 C370.464201,128.433567 358.226451,95.6190183 359.18989,72.9102073 C365.773774,75.6437927 369.864933,76.3364085 370.72811,65.0828415 Z"/>
    <path stroke="#01050C" stroke-linecap="round" stroke-linejoin="round" d="M370.72811,65.0828415 L407.48861,86.3061585 C408.351787,98.5565854 412.444098,102.58897 419.026829,107.458024 C419.992573,131.325037 407.705268,150.036037 389.10836,147.710415 L389.00003,147.598628 C370.464201,128.433567 358.226451,95.6190183 359.18989,72.9102073 C365.773774,75.6437927 369.864933,76.3364085 370.72811,65.0828415 Z"/>
    <path fill="#FFF" d="M389.10836,90.5448293 C397.099372,95.1580427 403.586451,106.393171 403.586451,115.619598 C403.586451,124.846024 397.099372,128.591451 389.10836,123.978238 C381.1185,119.365024 374.631421,108.129896 374.631421,98.9023171 C374.631421,89.6758902 381.1185,85.9316159 389.10836,90.5448293 Z"/>
    <path stroke="#01050C" stroke-linecap="round" stroke-linejoin="round" d="M389.10836,90.5448293 C397.099372,95.1580427 403.586451,106.393171 403.586451,115.619598 C403.586451,124.846024 397.099372,128.591451 389.10836,123.978238 C381.1185,119.365024 374.631421,108.129896 374.631421,98.9023171 C374.631421,89.6758902 381.1185,85.9316159 389.10836,90.5448293 Z"/>
    <path stroke="#01050C" stroke-linecap="round" stroke-linejoin="round" stroke-width="2" d="M383.636579,103.518988 C388.73036,112.340909 387.156128,109.61539 388.219829,111.456988 L396.37564,106.748122"/>
    <line x1="314.851" x2="342.803" y1="38.075" y2="54.213" stroke="#01050C" stroke-linecap="round" stroke-linejoin="round" stroke-width="2"/>
    <path fill="#EFF4F7" d="M350.12711,55.3758476 C350.12711,54.0217317 349.40453,52.7713354 348.2325,52.0948537 C342.072713,48.5384268 322.534262,37.2572012 314.202128,32.4469207 C313.41386,31.9917073 312.442354,31.9917073 311.652933,32.4469207 C310.864665,32.9021341 310.378335,33.7445671 310.378335,34.6549939 C310.378335,49.6804939 310.378335,98.4021585 310.378335,107.504122 C310.378335,108.414549 310.864665,109.255829 311.652933,109.711043 C316.99103,112.792665 337.666939,124.73078 346.303317,129.716232 C347.091585,130.171445 348.063091,130.171445 348.852512,129.716232 C349.64078,129.261018 350.12711,128.419738 350.12711,127.509311 C350.12711,112.841067 350.12711,66.0601098 350.12711,55.3758476 Z"/>
    <line x1="315.969" x2="338.331" y1="46.666" y2="59.576" stroke="#5A6D83" stroke-linecap="round" stroke-linejoin="round"/>
    <line x1="315.969" x2="329.387" y1="59.149" y2="66.896" stroke="#5A6D83" stroke-linecap="round" stroke-linejoin="round"/>
    <line x1="336.095" x2="342.803" y1="70.768" y2="74.641" stroke="#5A6D83" stroke-linecap="round" stroke-linejoin="round"/>
    <line x1="315.969" x2="339.449" y1="70.188" y2="83.744" stroke="#5A6D83" stroke-linecap="round" stroke-linejoin="round"/>
    <line x1="311.497" x2="327.15" y1="101.783" y2="110.821" stroke="#5A6D83" stroke-linecap="round" stroke-linejoin="round"/>
    <path fill="#FFF" d="M144.741732,9.9755122 C144.741732,8.70091463 144.061793,7.52312195 142.958909,6.88582317 C141.854872,6.24852439 140.494994,6.24852439 139.39211,6.88582317 C117.622537,19.4543232 36.0260506,66.5637256 18.3792128,76.752439 C16.2883427,77.9601951 15.0003768,80.1901646 15.0003768,82.6045244 C15.0003768,99.7182439 15.0003768,168.222677 15.0003768,189.262756 C15.0003768,190.536201 15.6802006,191.713994 16.7837762,192.351293 C17.8873518,192.988591 19.2471146,192.988591 20.3506902,192.351293 C42.1198024,179.782793 123.716634,132.67339 141.36278,122.484677 C143.453305,121.278073 144.741732,119.046951 144.741732,116.632591 C144.741732,99.518872 144.741732,31.014439 144.741732,9.9755122 Z"/>
    <path stroke="#01050C" stroke-linecap="round" stroke-linejoin="round" d="M144.741732,9.9755122 C144.741732,8.70091463 144.061793,7.52312195 142.958909,6.88582317 C141.854872,6.24852439 140.494994,6.24852439 139.39211,6.88582317 C117.622537,19.4543232 36.0260506,66.5637256 18.3792128,76.752439 C16.2883427,77.9601951 15.0003768,80.1901646 15.0003768,82.6045244 C15.0003768,99.7182439 15.0003768,168.222677 15.0003768,189.262756 C15.0003768,190.536201 15.6802006,191.713994 16.7837762,192.351293 C17.8873518,192.988591 19.2471146,192.988591 20.3506902,192.351293 C42.1198024,179.782793 123.716634,132.67339 141.36278,122.484677 C143.453305,121.278073 144.741732,119.046951 144.741732,116.632591 C144.741732,99.518872 144.741732,31.014439 144.741732,9.9755122 Z"/>
    <path fill="#EFF4F7" d="M130.897482 41.391C130.897482 39.7902622 130.043524 38.3105305 128.65714 37.5107378 127.270756 36.7097927 125.562841 36.7097927 124.176457 37.5107378 116.060982 42.1954024 102.829253 49.8349207 97.404953 52.9660976 95.8972171 53.8373415 94.9684665 55.4461463 94.9684665 57.1863293 94.9684665 67.095 94.9684665 100.591793 94.9684665 115.843171 94.9684665 117.426622 95.8132043 118.889067 97.1844915 119.680793 98.5558939 120.472518 100.24537 120.472518 101.616772 119.680793 109.724757 114.999585 123.020561 107.323189 128.461226 104.182793 129.968616 103.311549 130.897482 101.702744 130.897482 99.962561 130.897482 90.0723293 130.897482 56.681561 130.897482 41.391zM60.8419811 87.9771951C73.0214177 80.9450122 82.909575 86.6541951 82.909575 100.717409 82.909575 114.780622 73.0214177 131.908171 60.8419811 138.939201 48.6625445 145.971384 38.7743872 140.262201 38.7743872 126.198988 38.7743872 112.135774 48.6625445 95.0082256 60.8419811 87.9771951z"/>
    <path fill="#FFF" d="M60.8419811,99.2561159 C67.6299622,95.3378232 73.1409256,98.5197073 73.1409256,106.357445 C73.1409256,114.195183 67.6299622,123.740835 60.8419811,127.66028 C54.054,131.578573 48.5430366,128.396689 48.5430366,120.558951 C48.5430366,112.721213 54.054,103.175561 60.8419811,99.2561159 Z"/>
    <path stroke="#01050C" stroke-linecap="round" stroke-linejoin="round" d="M60.8419811,99.2561159 C67.6299622,95.3378232 73.1409256,98.5197073 73.1409256,106.357445 C73.1409256,114.195183 67.6299622,123.740835 60.8419811,127.66028 C54.054,131.578573 48.5430366,128.396689 48.5430366,120.558951 C48.5430366,112.721213 54.054,103.175561 60.8419811,99.2561159 Z"/>
    <path fill="#EFF4F7" d="M25.9405957,80.713372 C27.233978,79.9665915 28.2840805,80.5727744 28.2840805,82.0663354 C28.2840805,83.5598963 27.233978,85.3795976 25.9405957,86.126378 C24.6470982,86.8731585 23.5969957,86.2669756 23.5969957,84.7734146 C23.5969957,83.2798537 24.6470982,81.4601524 25.9405957,80.713372 Z"/>
    <path stroke="#01050C" stroke-linecap="round" stroke-linejoin="round" d="M25.9405957,80.713372 C27.233978,79.9665915 28.2840805,80.5727744 28.2840805,82.0663354 C28.2840805,83.5598963 27.233978,85.3795976 25.9405957,86.126378 C24.6470982,86.8731585 23.5969957,86.2669756 23.5969957,84.7734146 C23.5969957,83.2798537 24.6470982,81.4601524 25.9405957,80.713372 Z"/>
    <path fill="#EFF4F7" d="M35.0490128,75.4547927 C36.3425104,74.7080122 37.3926128,75.3141951 37.3926128,76.8077561 C37.3926128,78.3013171 36.3425104,80.1198659 35.0490128,80.8666463 C33.7555152,81.6134268 32.7054128,81.0072439 32.7054128,79.5136829 C32.7054128,78.020122 33.7555152,76.2015732 35.0490128,75.4547927 Z"/>
    <path stroke="#01050C" stroke-linecap="round" stroke-linejoin="round" d="M35.0490128,75.4547927 C36.3425104,74.7080122 37.3926128,75.3141951 37.3926128,76.8077561 C37.3926128,78.3013171 36.3425104,80.1198659 35.0490128,80.8666463 C33.7555152,81.6134268 32.7054128,81.0072439 32.7054128,79.5136829 C32.7054128,78.020122 33.7555152,76.2015732 35.0490128,75.4547927 Z"/>
    <path fill="#EFF4F7" d="M44.1574299,70.1962134 C45.4509274,69.4494329 46.5010299,70.0556159 46.5010299,71.5491768 C46.5010299,73.0427378 45.4509274,74.8612866 44.1574299,75.6080671 C42.8640476,76.3548476 41.8139451,75.7486646 41.8139451,74.2551037 C41.8139451,72.7615427 42.8640476,70.9429939 44.1574299,70.1962134 Z"/>
    <path stroke="#01050C" stroke-linecap="round" stroke-linejoin="round" d="M44.1574299,70.1962134 C45.4509274,69.4494329 46.5010299,70.0556159 46.5010299,71.5491768 C46.5010299,73.0427378 45.4509274,74.8612866 44.1574299,75.6080671 C42.8640476,76.3548476 41.8139451,75.7486646 41.8139451,74.2551037 C41.8139451,72.7615427 42.8640476,70.9429939 44.1574299,70.1962134 Z"/>
    <path fill="#EFF4F7" d="M79.8495037,72.7903537 C82.3177976,71.3647866 84.321889,72.5218354 84.321889,75.3718171 C84.321889,78.2217988 82.3177976,81.6929451 79.8495037,83.1185122 C77.3810945,84.5429268 75.3771183,83.385878 75.3771183,80.5358963 C75.3771183,77.6859146 77.3810945,74.2147683 79.8495037,72.7903537 Z"/>
    <path stroke="#01050C" stroke-linecap="round" stroke-linejoin="round" d="M79.8495037,72.7903537 C82.3177976,71.3647866 84.321889,72.5218354 84.321889,75.3718171 C84.321889,78.2217988 82.3177976,81.6929451 79.8495037,83.1185122 C77.3810945,84.5429268 75.3771183,83.385878 75.3771183,80.5358963 C75.3771183,77.6859146 77.3810945,74.2147683 79.8495037,72.7903537 Z"/>
    <path fill="#EFF4F7" d="M35.1259957,93.4466707 C37.5942896,92.0211037 39.5982659,93.1781524 39.5982659,96.0292866 C39.5982659,98.8792683 37.5942896,102.350415 35.1259957,103.774829 C32.6575866,105.200396 30.6536104,104.043348 30.6536104,101.193366 C30.6536104,98.3433841 32.6575866,94.8722378 35.1259957,93.4466707 Z"/>
    <path stroke="#01050C" stroke-linecap="round" stroke-linejoin="round" d="M35.1259957,93.4466707 C37.5942896,92.0211037 39.5982659,93.1781524 39.5982659,96.0292866 C39.5982659,98.8792683 37.5942896,102.350415 35.1259957,103.774829 C32.6575866,105.200396 30.6536104,104.043348 30.6536104,101.193366 C30.6536104,98.3433841 32.6575866,94.8722378 35.1259957,93.4466707 Z"/>
    <path fill="#EFF4F7" d="M41.8344585,150.244628 C45.5370146,148.106854 48.5430366,149.842427 48.5430366,154.117976 C48.5430366,158.392372 45.5370146,163.599091 41.8344585,165.736866 C38.1319024,167.87464 35.1259957,166.139067 35.1259957,161.863518 C35.1259957,157.589122 38.1319024,152.382402 41.8344585,150.244628 Z"/>
    <path stroke="#01050C" stroke-linecap="round" stroke-linejoin="round" d="M41.8344585,150.244628 C45.5370146,148.106854 48.5430366,149.842427 48.5430366,154.117976 C48.5430366,158.392372 45.5370146,163.599091 41.8344585,165.736866 C38.1319024,167.87464 35.1259957,166.139067 35.1259957,161.863518 C35.1259957,157.589122 38.1319024,152.382402 41.8344585,150.244628 Z"/>
    <path fill="#EFF4F7" d="M93.2665445,127.013762 C95.7349537,125.589348 97.7389299,126.746396 97.7389299,129.596378 C97.7389299,132.44636 95.7349537,135.917506 93.2665445,137.343073 C90.7981354,138.767488 88.7941591,137.610439 88.7941591,134.760457 C88.7941591,131.910476 90.7981354,128.439329 93.2665445,127.013762 Z"/>
    <path stroke="#01050C" stroke-linecap="round" stroke-linejoin="round" d="M93.2665445,127.013762 C95.7349537,125.589348 97.7389299,126.746396 97.7389299,129.596378 C97.7389299,132.44636 95.7349537,135.917506 93.2665445,137.343073 C90.7981354,138.767488 88.7941591,137.610439 88.7941591,134.760457 C88.7941591,131.910476 90.7981354,128.439329 93.2665445,127.013762 Z"/>
    <line x1="75.377" x2="70.905" y1="85.7" y2="93.447" stroke="#01050C" stroke-linecap="round" stroke-linejoin="round"/>
    <line x1="39.598" x2="48.543" y1="101.193" y2="106.357" stroke="#01050C" stroke-linecap="round" stroke-linejoin="round"/>
    <line x1="48.543" x2="53.015" y1="145.089" y2="133.836" stroke="#01050C" stroke-linecap="round" stroke-linejoin="round"/>
    <line x1="88.794" x2="73.141" y1="129.596" y2="123.142" stroke="#01050C" stroke-linecap="round" stroke-linejoin="round"/>
    <line x1="101.687" x2="118.842" y1="65.316" y2="55.412" stroke="#5A6D83" stroke-linecap="round" stroke-linejoin="round" stroke-width="2"/>
    <line x1="101.687" x2="111.98" y1="74.478" y2="68.536" stroke="#5A6D83" stroke-linecap="round" stroke-linejoin="round"/>
    <line x1="117.127" x2="127.419" y1="65.563" y2="59.621" stroke="#5A6D83" stroke-linecap="round" stroke-linejoin="round"/>
    <line x1="101.687" x2="122.273" y1="85.074" y2="73.189" stroke="#5A6D83" stroke-linecap="round" stroke-linejoin="round"/>
    <line x1="101.687" x2="111.98" y1="94.568" y2="88.625" stroke="#5A6D83" stroke-linecap="round" stroke-linejoin="round"/>
    <line x1="117.127" x2="127.419" y1="85.654" y2="79.711" stroke="#5A6D83" stroke-linecap="round" stroke-linejoin="round"/>
    <line x1="101.687" x2="108.549" y1="104.602" y2="100.64" stroke="#5A6D83" stroke-linecap="round" stroke-linejoin="round"/>
    <path fill="#FFF" d="M84.1877451,195.901957 C84.1877451,193.487598 82.8997793,191.257628 80.8089091,190.049872 C67.9050494,182.600506 21.6661994,155.904256 5.84931951,146.772329 C4.7457439,146.13503 3.3859811,146.13503 2.28240549,146.772329 C1.17882988,147.409628 0.499006098,148.586268 0.499006098,149.860866 C0.499006098,166.018061 0.499006098,209.189579 0.499006098,222.409207 C0.499006098,224.823567 1.7870872,227.054689 3.87784207,228.261293 C16.7817018,235.711811 63.0205518,262.408061 78.837547,271.539988 C79.9411226,272.176134 81.3007701,272.176134 82.4043457,271.539988 C83.5079213,270.902689 84.1877451,269.724896 84.1877451,268.450299 C84.1877451,252.293104 84.1877451,209.121585 84.1877451,195.901957 Z"/>
    <path stroke="#01050C" stroke-linecap="round" stroke-linejoin="round" d="M84.1877451,195.901957 C84.1877451,193.487598 82.8997793,191.257628 80.8089091,190.049872 C67.9050494,182.600506 21.6661994,155.904256 5.84931951,146.772329 C4.7457439,146.13503 3.3859811,146.13503 2.28240549,146.772329 C1.17882988,147.409628 0.499006098,148.586268 0.499006098,149.860866 C0.499006098,166.018061 0.499006098,209.189579 0.499006098,222.409207 C0.499006098,224.823567 1.7870872,227.054689 3.87784207,228.261293 C16.7817018,235.711811 63.0205518,262.408061 78.837547,271.539988 C79.9411226,272.176134 81.3007701,272.176134 82.4043457,271.539988 C83.5079213,270.902689 84.1877451,269.724896 84.1877451,268.450299 C84.1877451,252.293104 84.1877451,209.121585 84.1877451,195.901957 Z"/>
    <path fill="#EFF4F7" d="M75.1135555,194.323116 C73.8200579,193.576335 72.7699555,194.182518 72.7699555,195.676079 C72.7699555,197.16964 73.8200579,198.989341 75.1135555,199.736122 C76.4069378,200.482902 77.4570402,199.875567 77.4570402,198.382006 C77.4570402,196.889598 76.4069378,195.069896 75.1135555,194.323116 Z"/>
    <path stroke="#01050C" stroke-linecap="round" stroke-linejoin="round" d="M75.1135555,194.323116 C73.8200579,193.576335 72.7699555,194.182518 72.7699555,195.676079 C72.7699555,197.16964 73.8200579,198.989341 75.1135555,199.736122 C76.4069378,200.482902 77.4570402,199.875567 77.4570402,198.382006 C77.4570402,196.889598 76.4069378,195.069896 75.1135555,194.323116 Z"/>
    <path fill="#EFF4F7" d="M66.0050232,189.064537 C64.7116409,188.317756 63.6615384,188.923939 63.6615384,190.4175 C63.6615384,191.911061 64.7116409,193.72961 66.0050232,194.47639 C67.2985207,195.223171 68.3486232,194.616988 68.3486232,193.123427 C68.3486232,191.629866 67.2985207,189.811317 66.0050232,189.064537 Z"/>
    <path stroke="#01050C" stroke-linecap="round" stroke-linejoin="round" d="M66.0050232,189.064537 C64.7116409,188.317756 63.6615384,188.923939 63.6615384,190.4175 C63.6615384,191.911061 64.7116409,193.72961 66.0050232,194.47639 C67.2985207,195.223171 68.3486232,194.616988 68.3486232,193.123427 C68.3486232,191.629866 67.2985207,189.811317 66.0050232,189.064537 Z"/>
    <path fill="#EFF4F7" d="M56.8966061,183.805957 C55.6031085,183.059177 54.5530061,183.66536 54.5530061,185.158921 C54.5530061,186.652482 55.6031085,188.47103 56.8966061,189.217811 C58.1899884,189.964591 59.2400909,189.358409 59.2400909,187.864848 C59.2400909,186.371287 58.1899884,184.552738 56.8966061,183.805957 Z"/>
    <path stroke="#01050C" stroke-linecap="round" stroke-linejoin="round" d="M56.8966061,183.805957 C55.6031085,183.059177 54.5530061,183.66536 54.5530061,185.158921 C54.5530061,186.652482 55.6031085,188.47103 56.8966061,189.217811 C58.1899884,189.964591 59.2400909,189.358409 59.2400909,187.864848 C59.2400909,186.371287 58.1899884,184.552738 56.8966061,183.805957 Z"/>
    <line x1="12.567" x2="46.11" y1="178.002" y2="197.368" stroke="#5A6D83" stroke-linecap="round" stroke-linejoin="round"/>
    <line x1="12.567" x2="34.929" y1="184.874" y2="197.784" stroke="#5A6D83" stroke-linecap="round" stroke-linejoin="round"/>
    <polygon fill="#4D72EF" fill-opacity=".7" points="35.082 208.802 28.062 204.749 28.062 226.61 35.082 230.663"/>
    <polygon fill="#4D72EF" points="49.122 205.979 42.102 201.926 42.102 234.716 49.122 238.769"/>
    <polygon fill="#4D72EF" fill-opacity=".4" points="21.042 206.162 14.022 202.109 14.022 218.504 21.042 222.557"/>
    <path fill="#EFF4F7" d="M150.231951,145.138171 C150.231951,144.72675 150.011835,144.346445 149.655732,144.140159 C149.298476,143.935024 148.859396,143.935024 148.503293,144.140159 C141.38122,148.252061 114.357792,163.85378 107.236641,167.965683 C106.166947,168.58339 105.507982,169.724305 105.507982,170.95972 C105.507982,175.773457 105.507982,187.975482 105.507982,192.78922 C105.507982,193.20064 105.727637,193.580945 106.084202,193.787232 C106.440766,193.992366 106.880076,193.992366 107.236641,193.787232 C114.357792,189.675329 141.38122,174.07361 148.503293,169.961707 C149.572756,169.344 150.231951,168.203085 150.231951,166.967671 C150.231951,162.153933 150.231951,149.951909 150.231951,145.138171 Z"/>
    <path stroke="#B1BBC9" stroke-linecap="round" stroke-linejoin="round" d="M150.231951,145.138171 C150.231951,144.72675 150.011835,144.346445 149.655732,144.140159 C149.298476,143.935024 148.859396,143.935024 148.503293,144.140159 C141.38122,148.252061 114.357792,163.85378 107.236641,167.965683 C106.166947,168.58339 105.507982,169.724305 105.507982,170.95972 C105.507982,175.773457 105.507982,187.975482 105.507982,192.78922 C105.507982,193.20064 105.727637,193.580945 106.084202,193.787232 C106.440766,193.992366 106.880076,193.992366 107.236641,193.787232 C114.357792,189.675329 141.38122,174.07361 148.503293,169.961707 C149.572756,169.344 150.231951,168.203085 150.231951,166.967671 C150.231951,162.153933 150.231951,149.951909 150.231951,145.138171 Z"/>
    <line x1="114.453" x2="127.87" y1="176.71" y2="168.964" stroke="#B1BBC9" stroke-linecap="round" stroke-linejoin="round"/>
    <line x1="135.696" x2="142.405" y1="164.445" y2="160.572" stroke="#B1BBC9" stroke-linecap="round" stroke-linejoin="round"/>
    <path fill="#FFF" fill-opacity=".9" d="M408.770122,182.007 C408.770122,180.733555 408.091335,179.556915 406.988451,178.920768 C405.88672,178.284622 404.527994,178.284622 403.42511,178.920768 C388.131091,187.750756 344.475549,212.95575 331.774518,220.28872 C329.604476,221.541421 328.268799,223.856671 328.268799,226.362073 C328.268799,242.185061 328.268799,299.920066 328.268799,319.006416 C328.268799,320.279515 328.947585,321.455925 330.05047,322.092417 C331.152201,322.728909 332.510927,322.728909 333.613811,322.092417 C348.907829,313.261968 392.563372,288.057896 405.264402,280.724927 C407.434445,279.472226 408.770122,277.156976 408.770122,274.651573 C408.770122,258.827433 408.770122,201.093695 408.770122,182.007 Z"/>
    <path stroke="#01050C" stroke-linecap="round" stroke-linejoin="round" stroke-opacity=".9" d="M408.770122,182.007 C408.770122,180.733555 408.091335,179.556915 406.988451,178.920768 C405.88672,178.284622 404.527994,178.284622 403.42511,178.920768 C388.131091,187.750756 344.475549,212.95575 331.774518,220.28872 C329.604476,221.541421 328.268799,223.856671 328.268799,226.362073 C328.268799,242.185061 328.268799,299.920066 328.268799,319.006416 C328.268799,320.279515 328.947585,321.455925 330.05047,322.092417 C331.152201,322.728909 332.510927,322.728909 333.613811,322.092417 C348.907829,313.261968 392.563372,288.057896 405.264402,280.724927 C407.434445,279.472226 408.770122,277.156976 408.770122,274.651573 C408.770122,258.827433 408.770122,201.093695 408.770122,182.007 Z"/>
    <path fill="#EFF4F7" d="M402.631079,257.716482 C402.631079,256.115744 401.777122,254.636012 400.390738,253.83622 C399.004354,253.035274 397.295287,253.035274 395.908902,253.835067 C385.632604,259.768976 366.393787,270.876183 358.642482,275.351104 C356.562329,276.553098 355.279665,278.772695 355.279665,281.17553 C355.279665,284.285963 355.279665,288.74475 355.279665,292.569695 C355.279665,294.153146 356.124402,295.616398 357.495805,296.408124 C358.867207,297.199849 360.556683,297.199849 361.928085,296.408124 C372.62272,290.233701 393.156878,278.378561 400.194823,274.315061 C401.702213,273.44497 402.631079,271.836165 402.631079,270.094829 C402.631079,267.028189 402.631079,261.987421 402.631079,257.716482 Z"/>
    <path fill="#FFF" d="M381.346683,201.180128 C382.640872,200.433348 383.690744,201.03953 383.690744,202.533091 C383.690744,204.026652 382.640872,205.845201 381.346683,206.591982 C380.053646,207.338762 379.003774,206.732579 379.003774,205.239018 C379.003774,203.745457 380.053646,201.926909 381.346683,201.180128 Z"/>
    <path stroke="#01050C" stroke-linecap="round" stroke-linejoin="round" d="M381.346683,201.180128 C382.640872,200.433348 383.690744,201.03953 383.690744,202.533091 C383.690744,204.026652 382.640872,205.845201 381.346683,206.591982 C380.053646,207.338762 379.003774,206.732579 379.003774,205.239018 C379.003774,203.745457 380.053646,201.926909 381.346683,201.180128 Z"/>
    <path fill="#FFF" d="M390.455561,195.921549 C391.748598,195.174768 392.799622,195.780951 392.799622,197.274512 C392.799622,198.768073 391.748598,200.586622 390.455561,201.333402 C389.162524,202.080183 388.1115,201.474 388.1115,199.980439 C388.1115,198.486878 389.162524,196.668329 390.455561,195.921549 Z"/>
    <path stroke="#01050C" stroke-linecap="round" stroke-linejoin="round" d="M390.455561,195.921549 C391.748598,195.174768 392.799622,195.780951 392.799622,197.274512 C392.799622,198.768073 391.748598,200.586622 390.455561,201.333402 C389.162524,202.080183 388.1115,201.474 388.1115,199.980439 C388.1115,198.486878 389.162524,196.668329 390.455561,195.921549 Z"/>
    <path fill="#FFF" d="M399.564439,190.661817 C400.857476,189.915037 401.907348,190.522372 401.907348,192.015933 C401.907348,193.509494 400.857476,195.328043 399.564439,196.074823 C398.27025,196.821604 397.220378,196.215421 397.220378,194.72186 C397.220378,193.228299 398.27025,191.408598 399.564439,190.661817 Z"/>
    <path stroke="#01050C" stroke-linecap="round" stroke-linejoin="round" d="M399.564439,190.661817 C400.857476,189.915037 401.907348,190.522372 401.907348,192.015933 C401.907348,193.509494 400.857476,195.328043 399.564439,196.074823 C398.27025,196.821604 397.220378,196.215421 397.220378,194.72186 C397.220378,193.228299 398.27025,191.408598 399.564439,190.661817 Z"/>
    <path stroke="#4D72EF" stroke-linecap="round" stroke-linejoin="round" d="M338.91964,287.200482 C338.91964,287.200482 338.360707,256.967396 350.3115,250.327043 C362.26114,243.685537 359.867524,264.057201 372.025756,257.80522 C394.129537,246.441018 383.196348,217.887037 394.129537,212.265439 C398.055896,210.246366 400.032329,210.533323 402.647213,212.043018"/>
    <path fill="#FFF" d="M350.629573,246.7395 C352.486152,245.668884 353.99239,246.537823 353.99239,248.68136 C353.99239,250.823744 352.486152,253.434018 350.629573,254.504634 C348.774146,255.576402 347.267909,254.706311 347.267909,252.563927 C347.267909,250.42039 348.774146,247.811268 350.629573,246.7395 Z"/>
    <path stroke="#4D72EF" stroke-linecap="round" stroke-linejoin="round" d="M350.629573,246.7395 C352.486152,245.668884 353.99239,246.537823 353.99239,248.68136 C353.99239,250.823744 352.486152,253.434018 350.629573,254.504634 C348.774146,255.576402 347.267909,254.706311 347.267909,252.563927 C347.267909,250.42039 348.774146,247.811268 350.629573,246.7395 Z"/>
    <path fill="#FFF" d="M374.101299,252.554707 C375.957878,251.482939 377.464116,252.35303 377.464116,254.495415 C377.464116,256.638951 375.957878,259.248073 374.101299,260.319841 C372.245872,261.390457 370.739634,260.521518 370.739634,258.377982 C370.739634,256.235598 372.245872,253.625323 374.101299,252.554707 Z"/>
    <path stroke="#4D72EF" stroke-linecap="round" stroke-linejoin="round" d="M374.101299,252.554707 C375.957878,251.482939 377.464116,252.35303 377.464116,254.495415 C377.464116,256.638951 375.957878,259.248073 374.101299,260.319841 C372.245872,261.390457 370.739634,260.521518 370.739634,258.377982 C370.739634,256.235598 372.245872,253.625323 374.101299,252.554707 Z"/>
    <path fill="#FFF" d="M395.887006,207.711 C397.742433,206.639232 399.248671,207.509323 399.248671,209.651707 C399.248671,211.795244 397.742433,214.404366 395.887006,215.476134 C394.030427,216.54675 392.524189,215.677811 392.524189,213.534274 C392.524189,211.39189 394.030427,208.782768 395.887006,207.711 Z"/>
    <path stroke="#4D72EF" stroke-linecap="round" stroke-linejoin="round" d="M395.887006,207.711 C397.742433,206.639232 399.248671,207.509323 399.248671,209.651707 C399.248671,211.795244 397.742433,214.404366 395.887006,215.476134 C394.030427,216.54675 392.524189,215.677811 392.524189,213.534274 C392.524189,211.39189 394.030427,208.782768 395.887006,207.711 Z"/>
    <line x1="364.047" x2="390.881" y1="280.308" y2="264.814" stroke="#5A6D83" stroke-linecap="round" stroke-linejoin="round"/>
    <line x1="363.081" x2="380.97" y1="288.375" y2="278.047" stroke="#5A6D83" stroke-linecap="round" stroke-linejoin="round"/>
    <line x1="341.685" x2="361.129" y1="241.575" y2="230.35" stroke="#5A6D83" stroke-linecap="round" stroke-linejoin="round"/>
    <line x1="341.685" x2="372.991" y1="233.597" y2="215.522" stroke="#5A6D83" stroke-linecap="round" stroke-linejoin="round" stroke-width="2"/>
    <path fill="#FFF" d="M347.489177,110.230793 C347.489177,107.763421 346.173091,105.482744 344.03647,104.249634 C329.582579,95.9048232 273.834494,63.7183537 255.20186,52.9614878 C253.942244,52.2342988 252.391061,52.2342988 251.132598,52.9614878 C249.872982,53.6875244 249.09739,55.0312683 249.09739,56.4856463 C249.09739,71.8257622 249.09739,107.827957 249.09739,119.849049 C249.09739,122.316421 250.413476,124.597098 252.55125,125.830207 C267.003988,134.175018 322.753226,166.361488 341.384707,177.118354 C342.644323,177.845543 344.195506,177.845543 345.455122,177.118354 C346.713585,176.392317 347.489177,175.048573 347.489177,173.594195 C347.489177,158.254079 347.489177,122.251884 347.489177,110.230793 Z"/>
    <path stroke="#01050C" stroke-linecap="round" stroke-linejoin="round" d="M347.489177,110.230793 C347.489177,107.763421 346.173091,105.482744 344.03647,104.249634 C329.582579,95.9048232 273.834494,63.7183537 255.20186,52.9614878 C253.942244,52.2342988 252.391061,52.2342988 251.132598,52.9614878 C249.872982,53.6875244 249.09739,55.0312683 249.09739,56.4856463 C249.09739,71.8257622 249.09739,107.827957 249.09739,119.849049 C249.09739,122.316421 250.413476,124.597098 252.55125,125.830207 C267.003988,134.175018 322.753226,166.361488 341.384707,177.118354 C342.644323,177.845543 344.195506,177.845543 345.455122,177.118354 C346.713585,176.392317 347.489177,175.048573 347.489177,173.594195 C347.489177,158.254079 347.489177,122.251884 347.489177,110.230793 Z"/>
    <line x1="260.481" x2="267.896" y1="90.404" y2="94.684" stroke="#5A6D83" stroke-linecap="round" stroke-linejoin="round"/>
    <line x1="260.481" x2="284.785" y1="71.084" y2="85.115" stroke="#5A6D83" stroke-linecap="round" stroke-linejoin="round" stroke-width="2"/>
    <line x1="260.481" x2="271.603" y1="98.623" y2="105.045" stroke="#5A6D83" stroke-linecap="round" stroke-linejoin="round"/>
    <line x1="260.481" x2="279.019" y1="81.341" y2="92.044" stroke="#5A6D83" stroke-linecap="round" stroke-linejoin="round"/>
    <path fill="#FFF" d="M312.221085,104.066396 C312.645183,103.320768 313.431146,103.164037 314.282799,103.656128 C315.133299,104.147067 315.920415,105.211921 316.344512,106.447335 C319.759189,116.394037 326.550512,136.175652 329.954817,146.093543 C330.377762,147.324348 330.37661,148.537866 329.95136,149.277732 C329.52611,150.017598 328.742451,150.170872 327.894256,149.681085 C321.074122,145.743201 307.491476,137.902006 300.671341,133.964122 C299.823146,133.474335 299.038335,132.415244 298.613085,131.184439 C298.187835,129.953634 298.186683,128.738963 298.609628,127.99564 C302.013933,122.009872 308.805256,110.070604 312.221085,104.066396 Z"/>
    <path stroke="#E01A33" stroke-linecap="round" stroke-linejoin="round" stroke-width="2" d="M312.221085,104.066396 C312.645183,103.320768 313.431146,103.164037 314.282799,103.656128 C315.133299,104.147067 315.920415,105.211921 316.344512,106.447335 C319.759189,116.394037 326.550512,136.175652 329.954817,146.093543 C330.377762,147.324348 330.37661,148.537866 329.95136,149.277732 C329.52611,150.017598 328.742451,150.170872 327.894256,149.681085 C321.074122,145.743201 307.491476,137.902006 300.671341,133.964122 C299.823146,133.474335 299.038335,132.415244 298.613085,131.184439 C298.187835,129.953634 298.186683,128.738963 298.609628,127.99564 C302.013933,122.009872 308.805256,110.070604 312.221085,104.066396 Z"/>
    <line x1="314.283" x2="314.283" y1="115.601" y2="127.744" stroke="#E01A33" stroke-linecap="round" stroke-linejoin="round" stroke-width="2"/>
    <path fill="#E01A33" d="M314.282799,131.621213 C315.241628,132.174384 316.019524,133.669098 316.019524,134.95522 C316.019524,136.241341 315.241628,136.836 314.282799,136.282829 C313.32397,135.729659 312.544921,134.234945 312.544921,132.948823 C312.544921,131.662701 313.32397,131.068043 314.282799,131.621213 Z"/>
    <line x1="217.615" x2="219.851" y1="194.934" y2="200.098" stroke="#01050C" stroke-linecap="round" stroke-linejoin="round"/>
    <path fill="#FFF" d="M263.152537,121.355287 C263.910841,120.797506 264.846622,120.469061 265.858463,120.469061 C268.382305,120.469061 270.431341,122.518098 270.431341,125.041939 C270.431341,126.368396 269.865494,127.563476 268.961982,128.400146 L268.981573,128.423195 C268.981573,128.423195 256.746128,142.650055 254.387085,145.39286 C254.127787,145.693646 253.827,145.956402 253.492793,146.171909 C251.378067,147.536396 243.131213,152.857207 238.872951,155.605774 C237.252622,156.651037 236.229256,158.406201 236.11747,160.330774 C235.613854,169.002878 234.212488,193.100378 234.212488,193.100378 L237.33675,227.60325 L238.573317,260.898366 C238.576774,260.969817 238.580232,261.040116 238.581384,261.111567 L238.581384,261.113872 C238.582537,261.161122 238.582537,261.208372 238.582537,261.255622 C238.582537,264.929598 235.600024,267.91211 231.927201,267.91211 C228.253226,267.91211 225.270713,264.929598 225.270713,261.255622 C225.270713,261.177256 225.271866,261.09889 225.275323,261.020524 L225.270713,261.020524 L223.800201,229.406817 L220.677091,209.568732 L218.594634,259.801244 L218.594634,259.830055 C218.594634,263.502878 215.612122,266.48539 211.938146,266.48539 C208.265323,266.48539 205.282811,263.502878 205.282811,259.830055 C205.282811,259.800091 205.282811,259.77128 205.282811,259.74247 L205.278201,259.74247 L205.287421,259.592652 C205.290878,259.473951 205.297793,259.356402 205.308165,259.240006 L207.140543,229.406817 L205.743787,190.69178 L204.222567,175.786134 L202.527329,183.900457 L202.815439,202.354463 L202.80622,202.354463 C202.823506,202.520415 202.832726,202.687518 202.832726,202.856927 C202.832726,205.380768 200.783689,207.430957 198.259848,207.430957 C195.736006,207.430957 193.68697,205.380768 193.68697,202.856927 C193.68697,202.687518 193.696189,202.520415 193.713476,202.354463 L193.66853,202.354463 C193.66853,202.354463 193.349305,186.135037 193.29975,183.62272 C193.29514,183.407213 193.307817,183.190555 193.336628,182.976201 C193.598232,181.041256 194.982311,170.782244 196.089805,162.571116 C196.955287,156.16125 201.749433,150.985646 208.074018,149.632683 C218.911555,147.315128 234.212488,144.043354 234.212488,144.043354 C234.212488,144.043354 245.932793,137.276232 248.35522,135.878323 C248.643329,135.71122 248.909543,135.50839 249.145793,135.27214 L262.319323,122.14586 C262.515238,121.907305 262.735354,121.688341 262.973909,121.493579 L263.13525,121.33339 L263.152537,121.355287 Z"/>
    <g transform="translate(192.457 119.355)">
      <mask id="mss@1x-e" fill="#fff">
        <use xlink:href="#mss@1x-d"/>
      </mask>
      <path fill="#EFF4F7" d="M56.474122 25.5507256C56.474122 25.5507256 49.6343963 28.9711646 44.4507256 31.563 40.9173476 33.329689 38.5917256 36.8457805 38.3497134 40.7882744 37.8046098 49.6401585 36.8619146 64.9756646 36.6406463 68.5585976 36.6095305 69.0668232 36.6152927 69.5773537 36.6590854 70.0844268 37.1131463 75.4144573 39.8040915 106.963628 40.0357317 109.675317 40.0461037 109.798628 40.0541707 109.923091 40.0587805 110.047555 40.1601951 112.448085 41.2043049 137.250878 41.2043049 137.250878 41.2043049 137.250878 41.1939329 137.352293 41.1754939 137.537835 40.9380915 139.921079 39.4687317 142.006994 37.3044512 143.033817 35.1401707 144.059488 32.5955854 143.877402 30.599561 142.55325 30.599561 142.55325 30.599561 142.55325 30.599561 142.55325L29.985311 152.645159 56.474122 151.022524 63.3887561 121.529305 91.741061-2.59068293 68.7038049 1.05217683C68.7038049 1.05217683 71.1803963 2.29104878 73.5740122 3.48728049 74.5731768 3.98743902 75.2623354 4.94511585 75.4202195 6.05030488 75.5769512 7.1554939 75.1805122 8.26759756 74.361128 9.02590244 68.2359146 14.684378 56.474122 25.5507256 56.474122 25.5507256zM27.1745122 88.1811768L24.9456951 90.7038659 23.7932561 109.924244C23.7932561 109.924244 22.8597805 125.16525 22.1809939 136.254018 22.0380915 138.586555 20.6609268 140.666707 18.5680976 141.70736 16.4764207 142.749165 13.9871524 142.594738 12.0395305 141.302854 12.0372256 141.301701 12.0360732 141.300549 12.0360732 141.300549L11.4218232 151.39361 29.8447134 147.927073C29.5658232 127.560018 31.836128 105.306421 27.1745122 88.1811768zM11.2397378 45.9627256C11.2397378 45.9627256 7.95989634 61.0550671 7.3975061 63.6411402 7.34334146 63.8889146 7.32259756 64.1447561 7.33642683 64.3982927 7.42746951 66.1050549 7.80662195 73.179878 8.1004939 78.6839268 8.18231707 80.2178232 7.49431098 81.6917927 6.26465854 82.6125915 5.0350061 83.5333902 3.42735366 83.7800122 1.97758537 83.2706341 1.5062378 83.1046829 1.21121341 82.999811 1.21121341 82.999811L5.46486585 93.3798293 12.89925 90.777622 12.89925 64.7290427 11.2397378 45.9627256z" mask="url(#mss@1x-e)"/>
    </g>
    <path stroke="#01050C" stroke-linecap="round" stroke-linejoin="round" d="M263.152537,121.355287 C263.910841,120.797506 264.846622,120.469061 265.858463,120.469061 C268.382305,120.469061 270.431341,122.518098 270.431341,125.041939 C270.431341,126.368396 269.865494,127.563476 268.961982,128.400146 L268.981573,128.423195 C268.981573,128.423195 256.746128,142.650055 254.387085,145.39286 C254.127787,145.693646 253.827,145.956402 253.492793,146.171909 C251.378067,147.536396 243.131213,152.857207 238.872951,155.605774 C237.252622,156.651037 236.229256,158.406201 236.11747,160.330774 C235.613854,169.002878 234.212488,193.100378 234.212488,193.100378 L237.33675,227.60325 L238.573317,260.898366 C238.576774,260.969817 238.580232,261.040116 238.581384,261.111567 L238.581384,261.113872 C238.582537,261.161122 238.582537,261.208372 238.582537,261.255622 C238.582537,264.929598 235.600024,267.91211 231.927201,267.91211 C228.253226,267.91211 225.270713,264.929598 225.270713,261.255622 C225.270713,261.177256 225.271866,261.09889 225.275323,261.020524 L225.270713,261.020524 L223.800201,229.406817 L220.677091,209.568732 L218.594634,259.801244 L218.594634,259.830055 C218.594634,263.502878 215.612122,266.48539 211.938146,266.48539 C208.265323,266.48539 205.282811,263.502878 205.282811,259.830055 C205.282811,259.800091 205.282811,259.77128 205.282811,259.74247 L205.278201,259.74247 L205.287421,259.592652 C205.290878,259.473951 205.297793,259.356402 205.308165,259.240006 L207.140543,229.406817 L205.743787,190.69178 L204.222567,175.786134 L202.527329,183.900457 L202.815439,202.354463 L202.80622,202.354463 C202.823506,202.520415 202.832726,202.687518 202.832726,202.856927 C202.832726,205.380768 200.783689,207.430957 198.259848,207.430957 C195.736006,207.430957 193.68697,205.380768 193.68697,202.856927 C193.68697,202.687518 193.696189,202.520415 193.713476,202.354463 L193.66853,202.354463 C193.66853,202.354463 193.349305,186.135037 193.29975,183.62272 C193.29514,183.407213 193.307817,183.190555 193.336628,182.976201 C193.598232,181.041256 194.982311,170.782244 196.089805,162.571116 C196.955287,156.16125 201.749433,150.985646 208.074018,149.632683 C218.911555,147.315128 234.212488,144.043354 234.212488,144.043354 C234.212488,144.043354 245.932793,137.276232 248.35522,135.878323 C248.643329,135.71122 248.909543,135.50839 249.145793,135.27214 L262.319323,122.14586 C262.515238,121.907305 262.735354,121.688341 262.973909,121.493579 L263.13525,121.33339 L263.152537,121.355287 Z"/>
    <polyline stroke="#01050C" stroke-linecap="round" stroke-linejoin="round" points="202.732 164.149 204.036 166.493 204.241 176.296"/>
    <line x1="219.891" x2="220.723" y1="207.795" y2="209.729" stroke="#01050C" stroke-linecap="round" stroke-linejoin="round"/>
    <path fill="#FFF" d="M215.630561,115.694506 C222.803341,115.694506 228.626616,121.51778 228.626616,128.690561 C228.626616,135.863341 222.803341,141.686616 215.630561,141.686616 C208.458933,141.686616 202.635659,135.863341 202.635659,128.690561 C202.635659,121.51778 208.458933,115.694506 215.630561,115.694506 Z"/>
    <g transform="translate(201.677 114.745)">
      <mask id="mss@1x-g" fill="#fff">
        <use xlink:href="#mss@1x-f"/>
      </mask>
      <path fill="#EFF4F7" d="M13.4420488,-0.00115243902 L13.684061,-0.0126768293 C21.0055061,-0.0126768293 26.9497866,5.93160366 26.9497866,13.2530488 C26.9497866,20.5744939 21.0055061,26.5187744 13.684061,26.5187744 C12.1478598,26.5187744 10.6715854,26.2560183 9.3024878,25.7604695 C16.5121463,25.6406159 22.3250488,19.7470427 22.3250488,12.5074207 C22.3250488,6.72217683 18.6141951,1.79780488 13.4420488,-0.00115243902 Z" mask="url(#mss@1x-g)"/>
    </g>
    <path stroke="#01050C" stroke-linecap="round" stroke-linejoin="round" d="M215.630561,115.694506 C222.803341,115.694506 228.626616,121.51778 228.626616,128.690561 C228.626616,135.863341 222.803341,141.686616 215.630561,141.686616 C208.458933,141.686616 202.635659,135.863341 202.635659,128.690561 C202.635659,121.51778 208.458933,115.694506 215.630561,115.694506 Z"/>
    <path fill="#EFF4F7" d="M202.83964,44.3550732 C202.83964,43.782311 202.533091,43.252189 202.03639,42.9652317 C201.540841,42.6794268 200.928896,42.6794268 200.432195,42.9652317 C189.587744,49.2264329 145.441262,74.7149268 137.112585,79.5229024 C136.271305,80.0080793 135.75386,80.9058293 135.75386,81.8761829 C135.75386,86.94 135.75386,102.895518 135.75386,109.377988 C135.75386,109.951902 136.059256,110.480872 136.555957,110.767829 C137.052659,111.054787 137.664604,111.054787 138.161305,110.767829 C149.004604,104.50778 193.152238,79.0181341 201.480915,74.2101585 C202.321043,73.7249817 202.83964,72.8283841 202.83964,71.856878 C202.83964,66.793061 202.83964,50.8375427 202.83964,44.3550732 Z"/>
    <path stroke="#01050C" stroke-linecap="round" stroke-linejoin="round" d="M202.83964,44.3550732 C202.83964,43.782311 202.533091,43.252189 202.03639,42.9652317 C201.540841,42.6794268 200.928896,42.6794268 200.432195,42.9652317 C189.587744,49.2264329 145.441262,74.7149268 137.112585,79.5229024 C136.271305,80.0080793 135.75386,80.9058293 135.75386,81.8761829 C135.75386,86.94 135.75386,102.895518 135.75386,109.377988 C135.75386,109.951902 136.059256,110.480872 136.555957,110.767829 C137.052659,111.054787 137.664604,111.054787 138.161305,110.767829 C149.004604,104.50778 193.152238,79.0181341 201.480915,74.2101585 C202.321043,73.7249817 202.83964,72.8283841 202.83964,71.856878 C202.83964,66.793061 202.83964,50.8375427 202.83964,44.3550732 Z"/>
    <line x1="164.511" x2="191.345" y1="76.62" y2="61.128" stroke="#01050C" stroke-linecap="round" stroke-linejoin="round"/>
    <line x1="164.511" x2="183.964" y1="85.312" y2="74.08" stroke="#01050C" stroke-linecap="round" stroke-linejoin="round"/>
    <path fill="#FFF" d="M149.731793,79.2762805 C151.463909,78.2759634 152.868732,79.1172439 152.868732,81.1536037 C152.868732,83.1911159 151.463909,85.6561829 149.731793,86.6553476 C147.999677,87.6556646 146.593701,86.8132317 146.593701,84.776872 C146.593701,82.7405122 147.999677,80.2754451 149.731793,79.2762805 Z"/>
    <path stroke="#01050C" stroke-linecap="round" stroke-linejoin="round" d="M149.731793,79.2762805 C151.463909,78.2759634 152.868732,79.1172439 152.868732,81.1536037 C152.868732,83.1911159 151.463909,85.6561829 149.731793,86.6553476 C147.999677,87.6556646 146.593701,86.8132317 146.593701,84.776872 C146.593701,82.7405122 147.999677,80.2754451 149.731793,79.2762805 Z"/>
    <path fill="#FFF" d="M154.721854,95.0439512 L154.721854,91.0772561 C154.721854,88.0532561 152.637091,86.8063171 150.067152,88.2906585 C149.843579,88.4197317 149.620006,88.5488049 149.396433,88.677878 C146.825341,90.1610671 144.741732,93.8154512 144.741732,96.8382988 L144.741732,100.804994 L150.067152,97.731439"/>
    <path stroke="#01050C" stroke-linecap="round" stroke-linejoin="round" d="M154.721854,95.0439512 L154.721854,91.0772561 C154.721854,88.0532561 152.637091,86.8063171 150.067152,88.2906585 C149.843579,88.4197317 149.620006,88.5488049 149.396433,88.677878 C146.825341,90.1610671 144.741732,93.8154512 144.741732,96.8382988 L144.741732,100.804994 L150.067152,97.731439"/>
    <path fill="#FFF" fill-opacity=".9" d="M135.197232,249.34286 C135.197232,246.9285 133.908805,244.697378 131.81828,243.489622 C121.52239,237.545341 90.482828,219.624915 77.9342652,212.380683 C76.8306896,211.743384 75.4709268,211.743384 74.3673512,212.37953 C73.2637756,213.016829 72.5839518,214.194622 72.5839518,215.46922 C72.5839518,233.194884 72.5839518,283.874543 72.5839518,298.34572 C72.5839518,300.759964 73.8719177,302.990855 75.9627878,304.198035 C86.2582171,310.142085 117.297549,328.062973 129.846457,335.307896 C130.950494,335.944965 132.310372,335.944965 133.413256,335.307896 C134.517293,334.670713 135.197232,333.493151 135.197232,332.218899 C135.197232,314.493004 135.197232,263.812884 135.197232,249.34286 Z"/>
    <path stroke="#01050C" stroke-linecap="round" stroke-linejoin="round" stroke-opacity=".9" d="M135.197232,249.34286 C135.197232,246.9285 133.908805,244.697378 131.81828,243.489622 C121.52239,237.545341 90.482828,219.624915 77.9342652,212.380683 C76.8306896,211.743384 75.4709268,211.743384 74.3673512,212.37953 C73.2637756,213.016829 72.5839518,214.194622 72.5839518,215.46922 C72.5839518,233.194884 72.5839518,283.874543 72.5839518,298.34572 C72.5839518,300.759964 73.8719177,302.990855 75.9627878,304.198035 C86.2582171,310.142085 117.297549,328.062973 129.846457,335.307896 C130.950494,335.944965 132.310372,335.944965 133.413256,335.307896 C134.517293,334.670713 135.197232,333.493151 135.197232,332.218899 C135.197232,314.493004 135.197232,263.812884 135.197232,249.34286 Z"/>
    <path stroke="#B1BBC9" stroke-linecap="round" stroke-linejoin="round" d="M102.945649,254.030982 C108.363726,257.158701 112.762586,264.778628 112.762586,271.034067 C112.762586,277.290659 108.363726,279.830634 102.945649,276.701762 C97.5275726,273.574043 93.128828,265.955268 93.128828,259.698677 C93.128828,253.442085 97.5275726,250.903262 102.945649,254.030982 Z"/>
    <path stroke="#B1BBC9" stroke-linecap="round" stroke-linejoin="round" d="M102.945649,241.416384 C114.576295,248.130494 124.018573,264.485909 124.018573,277.91528 C124.018573,291.345574 114.576295,296.797187 102.945649,290.082732 C91.3151195,283.36747 81.8726104,267.012055 81.8726104,253.582683 C81.8726104,240.153311 91.3151195,234.701122 102.945649,241.416384 Z"/>
    <polyline stroke="#B1BBC9" stroke-linecap="round" stroke-linejoin="round" points="102.946 241.416 102.946 265.366 124.019 277.533"/>
    <path fill="#E01A33" d="M102.945649 238.439634C104.284092 239.212921 105.370727 241.094854 105.370727 242.640274 105.370727 244.185695 104.284092 244.812622 102.945649 244.040488 101.607322 243.267201 100.520687 241.385268 100.520687 239.839848 100.520687 238.294427 101.607322 237.6675 102.945649 238.439634zM102.945649 262.565945C104.284092 263.339232 105.370727 265.221165 105.370727 266.766585 105.370727 268.312006 104.284092 268.938933 102.945649 268.166799 101.607322 267.393512 100.520687 265.511579 100.520687 263.966159 100.520687 262.420738 101.607322 261.793811 102.945649 262.565945zM123.482689 274.42339C124.821823 275.196677 125.908573 277.07861 125.908573 278.62403 125.908573 280.169451 124.821823 280.796378 123.482689 280.024244 122.144707 279.250957 121.057957 277.369024 121.057957 275.823604 121.057957 274.278183 122.144707 273.651256 123.482689 274.42339z"/>
    <line x1="83.765" x2="106.127" y1="288.045" y2="300.956" stroke="#01050C" stroke-linecap="round" stroke-linejoin="round"/>
    <line x1="83.765" x2="97.182" y1="295.792" y2="303.538" stroke="#01050C" stroke-linecap="round" stroke-linejoin="round"/>
  </g>
</svg>
