<?xml version="1.0" ?>
<!-- Uploaded to: SVG Repo, www.svgrepo.com, Generator: SVG Repo Mixer Tools -->
<svg width="800px" height="800px" viewBox="0 0 512 512" xmlns="http://www.w3.org/2000/svg">
<defs>
<style>.e{fill:#f2c34e;}.f{fill:#cecece;}.g{fill:#dfdfdf;}.h{fill:#41a08e;}.i{fill:#365650;}</style>
</defs>
<g id="a"/>
<g id="b"/>
<g id="c">
<g>
<path class="g" d="M225.96704,95.51172c-8.76953-1.0874-16.76001,5.14014-17.84717,13.90967l4.92163-39.69604c1.0874-8.76953-5.14014-16.76001-13.90967-17.84717-8.76953-1.08716-16.75977,5.14038-17.84717,13.90991l2.95312-23.81787c1.08716-8.76929-5.14038-16.75977-13.90967-17.84692-8.76953-1.0874-16.76001,5.14038-17.84717,13.90967l-5.90601,47.63525c1.08716-8.76929-5.14038-16.75977-13.90991-17.84692-8.76929-1.0874-16.75977,5.14014-17.84692,13.90967l-14.76514,119.08813-18.64795-28.13794c-12.42969-18.75562-37.28223-24.64502-56.80688-13.4624l78.53687,146.77881-39.13501,190.00244h120l6.46631-179.1748,19.12109-32.76611c7.64502-13.10034,12.54932-27.61694,14.41553-42.66943l3.07739-24.82129,12.79639-103.20972c1.0874-8.76929-5.14038-16.75977-13.90967-17.84692Z"/>
<path class="g" d="M488,159.21875c-19.52466-11.18262-44.37695-5.29321-56.80688,13.4624l-18.64795,28.13794-14.76489-119.08813c-1.0874-8.76953-9.07764-14.99707-17.84717-13.90967-8.76929,1.08716-14.99707,9.07715-13.90967,17.84668l-5.90625-47.63501c-1.08716-8.76929-9.07764-14.99707-17.84692-13.90967-8.76953,1.08716-14.99707,9.07764-13.90991,17.84692l2.95288,23.81689c-1.08765-8.76904-9.07788-14.99609-17.84692-13.90894-8.76929,1.08716-14.99707,9.07764-13.90967,17.84717l4.92163,39.69556c-1.08765-8.76929-9.07788-14.99658-17.84692-13.90918-8.76953,1.08716-14.99707,9.07764-13.90991,17.84692l12.79639,103.20972,3.07739,24.82129c1.86621,15.05249,6.77051,29.56909,14.41553,42.66943l19.12109,32.76611,6.46631,179.1748h120l-39.13501-190.00244,78.53687-146.77881Z"/>
<path class="e" d="M406.03979,220.74072c-7.66333-11.17017-22.84009-13.88281-33.89844-6.05981l-10.01147,7.08276-6.93774-10.11255c-7.66333-11.17017-22.84009-13.88306-33.89844-6.05981-11.05835,7.82324-13.81079,23.22021-6.14771,34.39014l34.68872,50.56226,50.05737-35.41309c11.05859-7.82324,13.81079-23.22021,6.14771-34.38989Z"/>
<path class="h" d="M195.57715,220.23047c-7.14844-11.90918-18.50684-20.32129-31.98242-23.6875-13.47266-3.36816-27.45508-1.2832-39.36426,5.86523s-20.32129,18.50684-23.6875,31.98242-1.2832,27.45605,5.86523,39.36426c7.14844,11.90918,18.50684,20.32129,31.98242,23.6875,4.20898,1.05176,8.46582,1.57129,12.69434,1.57129,9.31152,0,18.48047-2.52051,26.66992-7.43652,24.58398-14.75684,32.5791-46.7627,17.82227-71.34668Zm-82.30957,49.40723c-6.04883-10.07617-7.81152-21.90527-4.96289-33.30762,2.84766-11.40332,9.96582-21.01367,20.04297-27.0625,2.17822-1.30762,4.44531-2.39062,6.76514-3.29443l11.5791,40.52539-20.48291,36.8689c-5.19531-3.53564-9.6106-8.18091-12.94141-13.72974Zm27.0625,20.04297c-2.46484-.61548-4.83936-1.44214-7.11865-2.44336l16.58862-29.86035,9.38916,32.86084c-6.17432,1.17383-12.58179,1.01172-18.85913-.55713Zm33.30762-4.96289c-2.17798,1.30762-4.44189,2.4021-6.76196,3.30566l-9.38428-32.84375,29.84985,16.58325c-3.47144,5.11108-8.06738,9.57153-13.70361,12.95483Zm17.5769-19.95532l-36.83154-20.46216-11.58447-40.54419c2.67212-.50806,5.3855-.78149,8.11646-.78149,3.57715,0,7.18066,.44043,10.74121,1.33008,11.40234,2.84766,21.0127,9.96582,27.06152,20.04297,7.63281,12.71582,8.0603,27.77393,2.49683,40.41479Z"/>
<rect class="f" height="8.00024" transform="translate(28.43163 281.27989) rotate(-82.93225)" width="121.57021" x="112.58476" y="120.55261"/>
<rect class="f" height="8.00024" transform="translate(-6.54058 253.86403) rotate(-82.93224)" width="101.38173" x="89.68046" y="126.63269"/>
<rect class="f" height="8.00024" transform="translate(28.75015 333.42453) rotate(-82.93224)" width="77.32491" x="164.37123" y="146.4447"/>
<rect class="f" height="93.54077" transform="translate(-13.72415 46.801) rotate(-7.06729)" width="8.00024" x="368.08044" y="87.75305"/>
<rect class="f" height="85.02101" transform="translate(-15.69224 39.14446) rotate(-7.06755)" width="8.00024" x="305.0907" y="104.11547"/>
<rect class="f" height="119.99967" transform="translate(-12.84727 42.62511) rotate(-7.06753)" width="8.00024" x="334.69568" y="65.3322"/>
<path class="i" d="M226.45898,91.54199c-4.47168-.54932-8.77393,.44482-12.40576,2.53564l2.9585-23.85986c1.35645-10.94434-6.44336-20.95215-17.3877-22.30957-4.47241-.55005-8.77466,.44385-12.40625,2.53467l.98926-7.97998c1.35742-10.94336-6.44238-20.95215-17.38672-22.30957-10.95215-1.3584-20.95117,6.44336-22.30957,17.3877l-3.94189,31.7937c-3.01147-2.91528-6.94092-4.92896-11.41162-5.48315-10.94434-1.35254-20.95117,6.44336-22.30859,17.38672l-13.43457,108.35742-12.6748-19.125c-13.55078-20.44727-40.83984-26.91602-62.12891-14.72266-1.87793,1.0752-2.55957,3.44922-1.53906,5.35742l77.85352,145.50195-38.84277,188.58594,7.83594,1.61328,39.13477-190.00293c.18848-.91602,.0498-1.86914-.3916-2.69336L30.05078,160.92969c17.03809-7.60645,37.5127-1.89258,48.02051,13.96094l18.64746,28.13867c.92383,1.39453,2.61523,2.07129,4.25,1.68359,1.62891-.38281,2.84766-1.74023,3.05371-3.40137l14.76562-119.08887c.81348-6.56445,6.81738-11.23828,13.38477-10.43164,6.5625,.81299,11.24072,6.81104,10.43359,13.3728l-11.81348,95.28247,7.93945,.98438,17.71777-142.90527c.81543-6.56445,6.79785-11.23828,13.38574-10.43262,3.18066,.39453,6.01758,2.00391,7.98828,4.53223s2.83789,5.67285,2.44336,8.85352l-17.71777,142.90527,7.93945,.98438,14.76562-119.08789c.39453-3.18066,2.00391-6.01855,4.53125-7.98828,2.52832-1.9707,5.66797-2.8418,8.85352-2.44434,6.56641,.81445,11.24609,6.81934,10.43262,13.38574l-14.76562,119.08789,7.93945,.98438,9.84399-79.39404c.81519-6.5647,6.81079-11.24365,13.38452-10.43018,6.56641,.81348,11.24609,6.81836,10.43262,13.38477l-15.87402,128.03125c-1.80957,14.59766-6.48633,28.44141-13.90039,41.14551l-19.12109,32.7666c-.33203,.56934-.51855,1.21191-.54199,1.87109l-6.4668,179.1748,7.99414,.28906,6.43066-178.1709,18.61523-31.89844c7.96289-13.64551,12.98535-28.51465,14.92969-44.19336l15.87402-128.03125c1.35645-10.94434-6.44336-20.95215-17.3877-22.30859Z"/>
<path class="i" d="M489.98828,155.74805c-21.28906-12.19238-48.57812-5.72461-62.12891,14.72266l-12.6748,19.12598-13.43457-108.3584c-1.35742-10.94336-11.3623-18.74512-22.30957-17.38672-4.47046,.5542-8.40015,2.56812-11.41162,5.48389l-3.94189-31.79443c-1.35742-10.94531-11.37402-18.73633-22.30859-17.3877-10.94434,1.35742-18.74414,11.36523-17.3877,22.30957l.9873,7.96289c-3.74048-2.15527-8.05054-3.05859-12.40332-2.51758-10.94434,1.35742-18.74414,11.36523-17.3877,22.30957l2.95752,23.85547c-3.63086-2.09058-7.93286-3.0835-12.40576-2.53125-5.30176,.65723-10.03027,3.33984-13.31348,7.55273-3.28418,4.21387-4.73047,9.4541-4.07324,14.75586l15.87402,128.03125c1.94434,15.67871,6.9668,30.54785,14.92969,44.19238l18.61523,31.89941,6.43066,178.1709,7.99414-.28906-6.4668-179.1748c-.02344-.65918-.20996-1.30176-.54199-1.87109l-19.12109-32.76758c-7.41406-12.70312-12.09082-26.54688-13.90039-41.14453l-15.87402-128.03125c-.39453-3.18066,.47266-6.3252,2.44336-8.85352,1.96973-2.52734,4.80762-4.13672,7.98828-4.53125,6.56567-.81421,12.56592,3.86279,13.38428,10.42383l9.84424,79.40039,7.93945-.98438-14.76465-119.08789c-.81348-6.56641,3.86621-12.57129,10.43262-13.38574,3.17871-.39648,6.32422,.47266,8.85254,2.44434,2.52734,1.96997,4.13647,4.80542,4.53174,7.98462l14.76514,119.09155,7.93945-.98438-17.71777-142.90527c-.81445-6.56641,3.86621-12.57129,10.43262-13.38574,3.17773-.39551,6.32422,.47266,8.85352,2.44434,2.52734,1.96973,4.13672,4.80762,4.53125,7.98828l17.71777,142.90527,7.93945-.98438-11.81152-95.27051c-.81445-6.56641,3.86523-12.57129,10.43164-13.38477,6.56152-.80859,12.57129,3.86426,13.38574,10.43164l14.76465,119.08887c.20605,1.66113,1.4248,3.01855,3.05371,3.40137,1.63574,.3877,3.32617-.28906,4.25-1.68359l18.64844-28.13867c10.50781-15.85254,30.98047-21.56348,48.02051-13.96094l-76.6123,143.18066c-.44043,.82422-.5791,1.77734-.39062,2.69336l39.13574,190.00293,7.83594-1.61328-38.84375-188.58594,77.85449-145.50195c1.02051-1.9082,.33887-4.28223-1.53906-5.35742Z"/>
<path class="i" d="M409.33887,218.47754c-4.31738-6.29297-10.80566-10.49316-18.27148-11.82715-7.4668-1.33691-15.00781,.35742-21.23633,4.76465l-6.69824,4.73926-4.6416-6.76562c-4.31738-6.29297-10.80566-10.49316-18.27148-11.82715-7.4668-1.33691-15.00781,.3584-21.23535,4.76465-12.81738,9.06641-16.01855,26.97363-7.13672,39.91797l34.68848,50.5625c.60645,.88281,1.54102,1.48633,2.59473,1.6748,.23438,.04199,.46973,.0625,.7041,.0625,.82129,0,1.62988-.25293,2.31055-.73438l50.05762-35.41309c12.81445-9.06738,16.01562-26.97461,7.13574-39.91895Zm-11.75684,33.3877l-46.74414,33.06934-32.39355-47.21582c-6.4209-9.35938-4.10742-22.30664,5.16016-28.86133,3.47266-2.45703,7.50977-3.73828,11.64355-3.73828,1.18359,0,2.37598,.10547,3.56445,.31738,5.33984,.95508,9.98633,3.96582,13.08105,8.47754l6.9375,10.1123c.60645,.88281,1.54102,1.48633,2.59473,1.6748,1.05469,.18945,2.13965-.05371,3.01465-.67188l10.01172-7.08301c4.4668-3.16016,9.87012-4.37207,15.20801-3.4209,5.33984,.95508,9.98633,3.96582,13.08105,8.47754,6.4209,9.35938,4.10645,22.30664-5.15918,28.8623Z"/>
<path class="i" d="M195.57715,220.23047c-7.14844-11.90918-18.50684-20.32129-31.98242-23.6875-13.47266-3.36816-27.45508-1.2832-39.36426,5.86523s-20.32129,18.50684-23.6875,31.98242-1.2832,27.45605,5.86523,39.36426c7.14844,11.90918,18.50684,20.32129,31.98242,23.6875,4.20898,1.05176,8.46582,1.57129,12.69434,1.57129,9.31152,0,18.48047-2.52051,26.66992-7.43652,24.58398-14.75684,32.5791-46.7627,17.82227-71.34668Zm-44.66211-17.25586c3.57715,0,7.18066,.44043,10.74121,1.33008,11.40234,2.84766,21.0127,9.96582,27.06152,20.04297,7.63281,12.71582,8.0603,27.77393,2.49683,40.41479l-36.83154-20.46216-11.58447-40.54419c2.67212-.50806,5.3855-.78149,8.11646-.78149Zm-37.64746,66.66309c-6.04883-10.07617-7.81152-21.90527-4.96289-33.30762,2.84766-11.40332,9.96582-21.01367,20.04297-27.0625,2.17822-1.30762,4.44531-2.39062,6.76514-3.29443l11.5791,40.52539-20.48291,36.8689c-5.19531-3.53564-9.6106-8.18091-12.94141-13.72974Zm27.0625,20.04297c-2.46484-.61548-4.83936-1.44214-7.11865-2.44336l16.58862-29.86035,9.38916,32.86084c-6.17432,1.17383-12.58179,1.01172-18.85913-.55713Zm33.30762-4.96289c-2.17798,1.30762-4.44189,2.4021-6.76196,3.30566l-9.38428-32.84375,29.84985,16.58325c-3.47144,5.11108-8.06738,9.57153-13.70361,12.95483Z"/>
</g>
</g>
<g id="d"/>
</svg>